<svg width="60" height="60" viewBox="0 0 60 60" fill="none" xmlns="http://www.w3.org/2000/svg">
    <rect width="60" height="60" rx="4" fill="url(#paint0_linear_264:62)"/>
    <path d="M13.5 26.1679C13.5 29.159 14.546 31.3961 16.6379 32.8793C17.9306 33.7939 19.3996 34.2512 21.045 34.2512C23.4894 34.2512 25.3346 33.3489 26.5803 31.5444C26.8623 31.1242 27.0856 30.7039 27.2502 30.2837L26.3335 29.95C25.4638 31.9028 24.03 32.9781 22.0322 33.1759C21.8441 33.2006 21.6561 33.213 21.468 33.213C19.7992 33.213 18.4947 32.3354 17.5545 30.5804C16.8494 29.2455 16.4968 27.6635 16.4968 25.8342C16.4968 22.596 17.3077 20.433 18.9296 19.3454C19.6112 18.9004 20.3633 18.678 21.186 18.678C22.4552 18.678 23.2191 19.1971 23.4777 20.2353C23.5247 20.433 23.5835 20.742 23.654 21.1623C23.795 22.151 24.0536 22.769 24.4296 23.0162C24.6647 23.1398 24.9232 23.214 25.2053 23.2387C26.0044 23.2881 26.5098 22.9421 26.7213 22.2005C26.7683 22.0274 26.7918 21.8668 26.7918 21.7184C26.7918 20.4578 26.0279 19.4195 24.5001 18.6038C23.4189 18.0352 22.2437 17.751 20.9745 17.751C17.8248 17.751 15.6272 19.0982 14.3814 21.7926C13.7938 23.078 13.5 24.5365 13.5 26.1679Z"
          fill="white"/>
    <path d="M38.7111 45.2504C36.5701 45.2504 35.0136 44.7301 34.0296 43.6895C33.0515 42.6488 32.5625 41.5296 32.5625 40.3256C32.5625 39.884 32.646 39.5149 32.8189 39.2185C32.9859 38.922 33.2304 38.6739 33.5167 38.5106C33.8149 38.3351 34.1787 38.2504 34.6081 38.2504C35.0434 38.2504 35.4072 38.3351 35.6994 38.5106C35.9976 38.686 36.2302 38.922 36.3972 39.2185C36.5701 39.521 36.6536 39.89 36.6536 40.3256C36.6536 40.858 36.5284 41.2876 36.2779 41.6264C36.0274 41.9591 35.7293 42.183 35.3893 42.2858C35.6875 42.7033 36.1527 42.9937 36.7908 43.1692C37.4289 43.3567 38.067 43.4475 38.7052 43.4475C39.5938 43.4475 40.3929 43.2055 41.1145 42.7214C41.8302 42.2374 42.3609 41.5175 42.7009 40.5737C43.0408 39.6238 43.2138 38.5529 43.2138 37.349C43.2138 36.0422 43.0229 34.929 42.6472 34.0033C42.2834 33.0655 41.7407 32.3758 41.0251 31.9221C40.3273 31.4804 39.5222 31.2445 38.7052 31.2445C38.1565 31.2445 37.4766 31.4744 36.6536 31.9402L35.1508 32.7025V31.9402L41.9137 22.7925H32.5625V32.2851C32.5625 33.0716 32.7355 33.7189 33.0754 34.2271C33.4153 34.7353 33.9401 34.9895 34.6498 34.9895C35.1985 34.9895 35.7173 34.8019 36.2183 34.4328C36.7252 34.0577 37.1606 33.604 37.5184 33.0837C37.5661 32.9808 37.6198 32.9022 37.6913 32.8598C37.751 32.8054 37.8345 32.7751 37.912 32.7751C38.0372 32.7751 38.1863 32.8356 38.3533 32.9687C38.5143 33.1502 38.5919 33.368 38.5919 33.61C38.574 33.7734 38.5441 33.9367 38.5084 34.094C38.1207 34.9713 37.584 35.6429 36.9041 36.1027C36.2362 36.5564 35.4549 36.7984 34.6498 36.7984C32.6221 36.7984 31.2207 36.3931 30.4454 35.5884C29.6701 34.7777 29.2824 33.6826 29.2824 32.2972V22.7985H24.4995V21.0319H29.2824V17.0086L28.1911 15.9015V15H31.3698L32.5625 15.6232V21.0259L44.9254 20.9956L46.1539 22.2419L38.574 29.9316C39.0332 29.744 39.5162 29.6291 40.0112 29.5867C40.8283 29.5867 41.7526 29.8529 42.7784 30.3853C43.8161 30.9057 44.6093 31.6196 45.1699 32.5331C45.7305 33.4346 46.0883 34.2997 46.2433 35.1347C46.4163 35.9696 46.4998 36.7077 46.4998 37.355C46.4998 38.8312 46.1897 40.2107 45.5754 41.4812C44.9611 42.7517 44.0248 43.6955 42.7724 44.3247C41.5201 44.9358 40.1663 45.2504 38.7111 45.2504Z"
          fill="white"/>
    <defs>
        <linearGradient id="paint0_linear_264:62" x1="-2.58333" y1="-21.9327" x2="62.4989" y2="-21.3671"
                        gradientUnits="userSpaceOnUse">
            <stop offset="0.122751" stop-color="#0F62FF"/>
            <stop offset="1" stop-color="#6B5BD2"/>
        </linearGradient>
    </defs>
</svg>
