<svg width="60" height="60" viewBox="0 0 60 60" fill="none" xmlns="http://www.w3.org/2000/svg">
<g filter="url(#filter0_d_236:12)">
<rect x="10" y="6" width="40" height="40" rx="4" fill="url(#paint0_linear_236:12)"/>
<path d="M19 23.4453C19 25.4393 19.6973 26.9307 21.0919 27.9195C21.9537 28.5293 22.9331 28.8341 24.03 28.8341C25.6596 28.8341 26.8897 28.2326 27.7202 27.0296C27.9082 26.7495 28.0571 26.4693 28.1668 26.1891L27.5557 25.9667C26.9759 27.2686 26.02 27.9854 24.6881 28.1173C24.5627 28.1337 24.4374 28.142 24.312 28.142C23.1995 28.142 22.3298 27.557 21.703 26.3869C21.2329 25.497 20.9979 24.4423 20.9979 23.2228C20.9979 21.064 21.5385 19.622 22.6197 18.8969C23.0741 18.6003 23.5756 18.452 24.124 18.452C24.9702 18.452 25.4794 18.798 25.6518 19.4902C25.6831 19.622 25.7223 19.828 25.7693 20.1082C25.8633 20.7674 26.0357 21.1793 26.2864 21.3441C26.4431 21.4265 26.6155 21.476 26.8035 21.4925C27.3363 21.5254 27.6732 21.2947 27.8142 20.8003C27.8456 20.685 27.8612 20.5778 27.8612 20.479C27.8612 19.6385 27.352 18.9464 26.3334 18.4025C25.6126 18.0235 24.8291 17.834 23.983 17.834C21.8832 17.834 20.4181 18.7321 19.5876 20.5284C19.1959 21.3853 19 22.3576 19 23.4453Z" fill="white"/>
<path d="M35.8074 36.1669C34.3801 36.1669 33.3424 35.82 32.6864 35.1263C32.0344 34.4326 31.7083 33.6864 31.7083 32.8837C31.7083 32.5893 31.764 32.3433 31.8793 32.1456C31.9906 31.948 32.1536 31.7826 32.3445 31.6737C32.5433 31.5568 32.7858 31.5003 33.072 31.5003C33.3623 31.5003 33.6048 31.5568 33.7996 31.6737C33.9984 31.7907 34.1535 31.948 34.2648 32.1456C34.3801 32.3473 34.4358 32.5933 34.4358 32.8837C34.4358 33.2387 34.3523 33.5251 34.1853 33.7509C34.0183 33.9728 33.8195 34.122 33.5929 34.1906C33.7917 34.4689 34.1018 34.6625 34.5272 34.7794C34.9526 34.9045 35.378 34.965 35.8034 34.965C36.3958 34.965 36.9286 34.8036 37.4097 34.481C37.8868 34.1583 38.2406 33.6783 38.4673 33.0491C38.6939 32.4159 38.8092 31.702 38.8092 30.8993C38.8092 30.0281 38.6819 29.286 38.4315 28.6689C38.1889 28.0437 37.8271 27.5839 37.35 27.2814C36.8849 26.9869 36.3481 26.8296 35.8034 26.8296C35.4377 26.8296 34.9844 26.9829 34.4358 27.2935L33.4338 27.8017V27.2935L37.9424 21.195H31.7083V27.5234C31.7083 28.0477 31.8236 28.4793 32.0503 28.8181C32.2769 29.1569 32.6268 29.3263 33.0999 29.3263C33.4657 29.3263 33.8116 29.2013 34.1455 28.9552C34.4835 28.7052 34.7737 28.4027 35.0123 28.0558C35.0441 27.9872 35.0798 27.9348 35.1276 27.9065C35.1673 27.8702 35.223 27.8501 35.2747 27.8501C35.3582 27.8501 35.4575 27.8904 35.5689 27.9792C35.6762 28.1002 35.7279 28.2454 35.7279 28.4067C35.716 28.5156 35.6961 28.6245 35.6722 28.7294C35.4138 29.3142 35.056 29.7619 34.6027 30.0684C34.1574 30.3709 33.6366 30.5323 33.0999 30.5323C31.7481 30.5323 30.8138 30.262 30.2969 29.7256C29.7801 29.1851 29.5216 28.4551 29.5216 27.5314V21.199H26.333V20.0213H29.5216V17.3391L28.794 16.601V16H30.9132L31.7083 16.4154V20.0173L39.9502 19.9971L40.7693 20.828L35.716 25.9544C36.0221 25.8294 36.3442 25.7527 36.6742 25.7245C37.2188 25.7245 37.8351 25.902 38.5189 26.2569C39.2107 26.6038 39.7395 27.0797 40.1132 27.6887C40.487 28.2897 40.7255 28.8665 40.8289 29.4231C40.9442 29.9797 40.9999 30.4718 40.9999 30.9034C40.9999 31.8875 40.7931 32.8071 40.3836 33.6541C39.9741 34.5011 39.3499 35.1303 38.515 35.5498C37.68 35.9572 36.7775 36.1669 35.8074 36.1669Z" fill="white"/>
</g>
<defs>
<filter id="filter0_d_236:12" x="0" y="0" width="60" height="60" filterUnits="userSpaceOnUse" color-interpolation-filters="sRGB">
<feFlood flood-opacity="0" result="BackgroundImageFix"/>
<feColorMatrix in="SourceAlpha" type="matrix" values="0 0 0 0 0 0 0 0 0 0 0 0 0 0 0 0 0 0 127 0" result="hardAlpha"/>
<feOffset dy="4"/>
<feGaussianBlur stdDeviation="5"/>
<feColorMatrix type="matrix" values="0 0 0 0 0 0 0 0 0 0 0 0 0 0 0 0 0 0 0.25 0"/>
<feBlend mode="normal" in2="BackgroundImageFix" result="effect1_dropShadow_236:12"/>
<feBlend mode="normal" in="SourceGraphic" in2="effect1_dropShadow_236:12" result="shape"/>
</filter>
<linearGradient id="paint0_linear_236:12" x1="8.27778" y1="-8.62183" x2="51.6659" y2="-8.24471" gradientUnits="userSpaceOnUse">
<stop offset="0.122751" stop-color="#0F62FF"/>
<stop offset="1" stop-color="#6B5BD2"/>
</linearGradient>
</defs>
</svg>
