<svg width="40" height="40" viewBox="0 0 40 40" fill="none" xmlns="http://www.w3.org/2000/svg">
<rect width="40" height="40" rx="4" fill="url(#paint0_linear)"/>
<path fill-rule="evenodd" clip-rule="evenodd" d="M19.4383 9.27761C18.6326 9.43032 17.9641 9.5562 17.9529 9.55739C17.9417 9.55854 18.0478 9.61449 18.1887 9.68174C18.522 9.84082 18.8155 10.1436 18.9266 10.4432C19.0051 10.6551 19.011 10.7565 19.011 11.8981V13.1252L18.7974 13.1477C18.6799 13.1601 18.0343 13.1784 17.3628 13.1882C15.7784 13.2115 15.1309 13.3104 14.1009 13.6866C12.9224 14.1169 11.8349 14.8841 11.3411 15.6334C10.9584 16.214 10.5422 17.2299 10.3399 18.0764C10.0882 19.1305 9.99955 20.0246 10 21.5061C10.0007 23.8744 10.3151 25.5301 11.06 27.0894C11.7941 28.6261 12.6519 29.4286 13.9733 29.8148C15.9588 30.3953 17.9266 29.581 18.8616 27.7922C19.4101 26.7426 19.7302 25.0217 19.584 23.9077C19.518 23.405 19.3912 22.9151 19.276 22.7171C18.9853 22.218 18.4298 21.9213 18.0031 22.0372C17.7484 22.1064 17.4136 22.4381 17.2405 22.7928C17.0243 23.236 16.966 23.5869 16.9873 24.3182C17.0086 25.0497 17.0734 25.2782 17.3974 25.7628C17.5127 25.9351 17.6372 26.1213 17.674 26.1764C17.8471 26.435 17.7843 27.0788 17.5399 27.5518C17.3494 27.9206 16.757 28.5054 16.3961 28.6809C15.4915 29.121 14.4093 28.9782 13.6697 28.3215C13.3162 28.0076 12.8402 27.209 12.5255 26.4021C12.0059 25.0694 11.6861 22.7954 11.6868 20.4387C11.6872 19.1441 11.7679 18.3988 11.998 17.5649C12.5181 15.6805 13.4832 14.6949 15.1561 14.3398C15.639 14.2373 16.5582 14.1981 17.821 14.2262L19.0118 14.2527L19.0012 17.2328C18.992 19.8447 18.9997 20.3042 19.0634 20.9518C19.1334 21.6629 19.1424 21.7037 19.3 22.0307C19.7026 22.8659 20.6027 23.4232 21.6215 23.4679C22.4153 23.5026 22.9172 23.327 23.3791 22.8526C23.6304 22.5946 23.6554 22.5554 23.5865 22.5281C23.5433 22.5111 23.1954 22.4958 22.8134 22.4942C21.9364 22.4906 21.7706 22.4479 21.4748 22.1493C21.3593 22.0326 21.2142 21.8293 21.1524 21.6975C20.9261 21.2146 20.9252 21.1986 20.9245 17.5752L20.9238 14.2396H24.3016C26.1594 14.2396 27.6794 14.2503 27.6794 14.2634C27.6794 14.2765 27.3806 14.6505 27.0155 15.0947C23.0018 19.9767 22.1281 21.0514 22.1526 21.0761C22.1618 21.0855 22.3058 21.0369 22.4724 20.9681C24.7389 20.0335 27.1634 20.8139 27.8449 22.6974C28.0364 23.2268 28.0984 23.6627 28.0753 24.3182C28.0121 26.1189 27.0588 27.4939 25.6097 27.8746C25.3735 27.9367 25.1686 27.9561 24.7582 27.9555C23.7185 27.9539 23.1081 27.763 22.6025 27.2811C22.2904 26.9837 22.3062 26.8485 22.6831 26.5903C23.0051 26.3697 23.1392 26.0982 23.1361 25.673C23.1331 25.2607 23.0064 24.9552 22.7175 24.6638C22.4229 24.3666 22.1856 24.28 21.7372 24.3062C20.9912 24.3498 20.3755 24.954 20.3228 25.6942C20.2708 26.4254 20.7794 27.407 21.4962 27.9588C22.2753 28.5586 23.048 28.7819 24.5504 28.8414C27.0005 28.9384 28.8611 27.9493 29.6127 26.1501C30.2601 24.6004 30.0849 22.7426 29.1694 21.449C28.9327 21.1145 28.4009 20.6074 28.1009 20.43C27.4583 20.0501 26.6134 19.8481 25.2885 19.7575C24.98 19.7364 24.8713 19.7146 24.8713 19.6738C24.8713 19.6434 24.9719 19.5028 25.0948 19.3615C25.2176 19.2201 25.4966 18.892 25.7145 18.6323C25.9325 18.3726 26.5325 17.6614 27.0477 17.0517C28.5368 15.2898 29.504 14.08 29.647 13.8003C29.7721 13.5557 29.6958 13.2941 29.4629 13.1683C29.4053 13.1372 28.1144 13.1255 25.1526 13.1292L20.9245 13.1345L20.914 11.0673L20.9034 9L19.4383 9.27761Z" fill="white"/>
<defs>
<linearGradient id="paint0_linear" x1="-1.72222" y1="-14.6218" x2="41.6659" y2="-14.2447" gradientUnits="userSpaceOnUse">
<stop offset="0.122751" stop-color="#0F62FF"/>
<stop offset="1" stop-color="#6B5BD2"/>
</linearGradient>
</defs>
</svg>
