<svg width="21" height="21" viewBox="0 0 21 21" fill="none" xmlns="http://www.w3.org/2000/svg">
    <defs>
        <linearGradient id="plenty_gradient" x1="0.992187" y1="10.093" x2="30.9515" y2="12.7049" gradientUnits="userSpaceOnUse">
            <stop stop-color="#7028E4"/>
            <stop offset="1" stop-color="#E5B2CA"/>
        </linearGradient>
    </defs>
    <rect x="0.992188" y="0.115234" width="20" height="19.9556" rx="9.97781" fill="url(#plenty_gradient)"/>
    <path d="M15.3924 8.63789C15.3924 9.14513 15.2651 9.62067 15.0105 10.0645C14.7653 10.5083 14.3739 10.8661 13.8364 11.1379C13.3083 11.4096 12.6387 11.5455 11.8277 11.5455H10.1727V15.1868H8.19238V5.70312H11.8277C12.5916 5.70312 13.2423 5.82994 13.7798 6.08356C14.3173 6.33718 14.7181 6.68591 14.9822 7.12974C15.2556 7.57358 15.3924 8.0763 15.3924 8.63789ZM11.7429 10.0102C12.2898 10.0102 12.6953 9.89241 12.9594 9.6569C13.2234 9.41234 13.3554 9.07267 13.3554 8.63789C13.3554 7.71398 12.8179 7.25203 11.7429 7.25203H10.1727V10.0102H11.7429Z" fill="white"/>
    <path d="M12.2569 15.2819C11.8986 15.2819 11.6015 15.1777 11.3658 14.9694C11.1395 14.752 11.0263 14.4848 11.0263 14.1677C11.0263 13.8507 11.1395 13.588 11.3658 13.3797C11.6015 13.1623 11.8986 13.0536 12.2569 13.0536C12.6059 13.0536 12.8935 13.1623 13.1198 13.3797C13.3461 13.588 13.4593 13.8507 13.4593 14.1677C13.4593 14.4848 13.3461 14.752 13.1198 14.9694C12.8935 15.1777 12.6059 15.2819 12.2569 15.2819Z" fill="white"/>

</svg>
