<svg width="20" height="20" viewBox="0 0 20 20" fill="none" xmlns="http://www.w3.org/2000/svg">
    <rect width="20" height="20" rx="10" fill="url(#paint0_linear)"/>
    <path d="M14.4002 8.54284C14.4002 9.05121 14.2729 9.5278 14.0183 9.97263C13.7731 10.4174 13.3817 10.776 12.8442 11.0484C12.3161 11.3207 11.6466 11.4569 10.8356 11.4569H9.18055V15.1062H7.2002V5.60156H10.8356C11.5994 5.60156 12.2501 5.72865 12.7876 5.98284C13.3251 6.23702 13.7259 6.58653 13.99 7.03135C14.2635 7.47617 14.4002 7.98 14.4002 8.54284ZM10.7507 9.91816C11.2976 9.91816 11.7031 9.80014 11.9672 9.56412C12.2312 9.31901 12.3633 8.97858 12.3633 8.54284C12.3633 7.61688 11.8257 7.1539 10.7507 7.1539H9.18055V9.91816H10.7507Z"
          fill="white"/>
    <path d="M11.2648 15.2016C10.9064 15.2016 10.6094 15.0972 10.3736 14.8884C10.1473 14.6705 10.0341 14.4027 10.0341 14.085C10.0341 13.7672 10.1473 13.504 10.3736 13.2952C10.6094 13.0773 10.9064 12.9684 11.2648 12.9684C11.6137 12.9684 11.9013 13.0773 12.1276 13.2952C12.3539 13.504 12.4671 13.7672 12.4671 14.085C12.4671 14.4027 12.3539 14.6705 12.1276 14.8884C11.9013 15.0972 11.6137 15.2016 11.2648 15.2016Z"
          fill="white"/>
    <defs>
        <linearGradient id="paint0_linear" x1="-3.77181e-08" y1="10" x2="29.9603" y2="12.6061"
                        gradientUnits="userSpaceOnUse">
            <stop stop-color="#7028E4"/>
            <stop offset="1" stop-color="#E5B2CA"/>
        </linearGradient>
    </defs>
</svg>
