<svg width="24" height="24" viewBox="0 0 24 24" fill="none" xmlns="http://www.w3.org/2000/svg">
    <path d="M16 17.0095V10.9995C16 10.4495 15.55 9.99953 15 9.99953C14.45 9.99953 14 10.4495 14 10.9995V17.0095H12.21C11.76 17.0095 11.54 17.5495 11.86 17.8595L14.65 20.6395C14.85 20.8295 15.16 20.8295 15.36 20.6395L18.15 17.8595C18.47 17.5495 18.24 17.0095 17.8 17.0095H16ZM8.65003 3.34953L5.86003 6.13953C5.54003 6.44953 5.76003 6.98953 6.21003 6.98953H8.00003V12.9995C8.00003 13.5495 8.45003 13.9995 9.00003 13.9995C9.55003 13.9995 10 13.5495 10 12.9995V6.98953H11.79C12.24 6.98953 12.46 6.44953 12.14 6.13953L9.35003 3.34953C9.16003 3.15953 8.84003 3.15953 8.65003 3.34953Z"
          fill="url(#paint0_linear)"/>
    <defs>
        <linearGradient id="paint0_linear" x1="5.16639" y1="-3.21744" x2="18.8243" y2="-3.13239"
                        gradientUnits="userSpaceOnUse">
            <stop offset="0.122751" stop-color="#0F62FF"/>
            <stop offset="1" stop-color="#6B5BD2"/>
        </linearGradient>
    </defs>
</svg>
